# xmcd
#
# Track frame offsets:
#	150
#	13877
#	30789
#	46326
#	58895
#	76908
#	91266
#	105761
#	117771
#	133024
#
# Disc length: 1924 seconds
#
# Revision: 2
# Processed by: cddbd v1.5.2PL0 Copyright (c) Steve Scherf et al.
# Submitted via: EasyCDDAExtractor 9.1.3.1
#
DISCID=6e07820a
DTITLE=Reba McEntire - Whoever's in New England
DYEAR=1986
DGENRE=country
TTITLE0=Can't Stop Now
TTITLE1=You Can Take The Wings Off Me
TTITLE2=Whoever's In New England
TTITLE3=I'll Believe It When I Feel It
TTITLE4=I've Seen Better Days
TTITLE5=Little Rock
TTITLE6=If You Only Knew
TTITLE7=One Thin Dime
TTITLE8=Don't Touch Me There
TTITLE9=To Make That Same Mistake Again
EXTD=
EXTT0=
EXTT1=
EXTT2=
EXTT3=
EXTT4=
EXTT5=
EXTT6=
EXTT7=
EXTT8=
EXTT9=
PLAYORDER=
